# xmcd
# 
# Track frame offsets:
#     150
#     14747
#     37601
#     57975
#     83247
#     106355
#     130503
#     149762
#     170609
#     187127
# 
# Disc length: 2726
# 
# Revision: 1
# Processed by: cddbd v1.5.2PL0 Copyright (c) Steve Scherf et al.
# Submitted via: fre:ac v1.0.17
# 
DISCID=8a0aa40a
DTITLE=Richard Clapton - The Essential Hits
DYEAR=1996
DGENRE=Rock
TTITLE0=Girls On The Avenue
TTITLE1=I Am An Island
TTITLE2=Glory Road
TTITLE3=Goodbye Tiger
TTITLE4=The Best Years of Our Lives
TTITLE5=Deep Water
TTITLE6=Down The Road
TTITLE7=Ace of Hearts
TTITLE8=Down In The Lucky Country
TTITLE9=Capricorn Dancer
EXTD=
EXTT0=
EXTT1=
EXTT2=
EXTT3=
EXTT4=
EXTT5=
EXTT6=
EXTT7=
EXTT8=
EXTT9=
PLAYORDER=
